<?xml version="1.0" encoding="us-ascii" standalone="no"?><svg xmlns="http://www.w3.org/2000/svg" xmlns:xlink="http://www.w3.org/1999/xlink" contentStyleType="text/css" height="491px" preserveAspectRatio="none" style="width:627px;height:491px;background:#FFFFFF;" version="1.1" viewBox="0 0 627 491" width="627px" zoomAndPan="magnify"><defs/><g><text fill="#000000" font-family="sans-serif" font-size="14" font-weight="bold" lengthAdjust="spacing" textLength="98" x="257.75" y="23.5099">WGPU Framework</text><!--class queue--><g id="elem_queue"><rect codeLine="7" fill="#F1F1F1" height="48" id="queue" rx="2.5" ry="2.5" style="stroke:#181818;stroke-width:0.5;" width="67" x="522" y="45.4999"/><ellipse cx="537" cy="61.4999" fill="#ADD1B2" rx="11" ry="11" style="stroke:#181818;stroke-width:1.0;"/><path d="M537.2031,68.1405 Q536.7344,68.1405 536.2813,68.0468 Q535.8281,67.953 535.4063,67.7187 Q535,67.4843 534.6875,67.1249 Q534.375,66.7655 534.1875,66.3437 Q534,65.9062 533.9219,65.4374 Q533.8594,64.9687 533.8594,64.5155 L533.8594,58.9843 Q533.8594,58.5312 533.9219,58.0624 Q534,57.5937 534.1875,57.1718 Q534.375,56.7499 534.6875,56.3905 Q535,56.0155 535.4063,55.7968 Q535.8281,55.5624 536.2813,55.4687 Q536.7344,55.3749 537.2031,55.3749 Q537.6406,55.3749 538.0781,55.453 Q538.5156,55.5155 538.9063,55.7187 Q539.2969,55.9062 539.6094,56.2343 Q539.9375,56.5468 540.125,56.9374 Q540.3281,57.328 540.4219,57.7655 Q540.5313,58.1874 540.5313,58.6405 L540.5313,58.6562 L538.6406,58.6562 L538.6406,58.6405 Q538.6406,58.328 538.5469,58.0312 Q538.4688,57.7343 538.2813,57.4843 Q538.0938,57.2343 537.7969,57.1249 Q537.5156,56.9999 537.2031,56.9999 Q536.9844,56.9999 536.75,57.078 Q536.5156,57.1405 536.3438,57.2968 Q536.1719,57.4374 536.0469,57.6405 Q535.9375,57.8437 535.875,58.078 Q535.8125,58.2968 535.7813,58.5312 Q535.75,58.7499 535.75,58.9843 L535.75,64.5155 Q535.75,64.7499 535.7813,64.9843 Q535.8125,65.2187 535.875,65.4374 Q535.9375,65.6562 536.0469,65.8593 Q536.1719,66.0624 536.3438,66.2187 Q536.5156,66.3749 536.75,66.4374 Q536.9844,66.4999 537.2031,66.4999 Q537.5156,66.4999 537.7969,66.3905 Q538.0938,66.2655 538.2813,66.0155 Q538.4688,65.7655 538.5469,65.4687 Q538.6406,65.1718 538.6406,64.8749 L538.6406,64.8593 L540.5313,64.8593 L540.5313,64.8749 Q540.5313,65.3124 540.4219,65.7499 Q540.3281,66.1874 540.125,66.578 Q539.9375,66.9687 539.6094,67.2812 Q539.2969,67.5937 538.9063,67.7968 Q538.5156,67.9843 538.0781,68.0624 Q537.6406,68.1405 537.2031,68.1405 Z " fill="#000000"/><text fill="#000000" font-family="sans-serif" font-size="14" lengthAdjust="spacing" textLength="35" x="551" y="66.2599">queue</text><line style="stroke:#181818;stroke-width:0.5;" x1="523" x2="588" y1="77.4999" y2="77.4999"/><line style="stroke:#181818;stroke-width:0.5;" x1="523" x2="588" y1="85.4999" y2="85.4999"/></g><!--class CommandEncoder--><g id="elem_CommandEncoder"><rect codeLine="12" fill="#F1F1F1" height="82.9998" id="CommandEncoder" rx="2.5" ry="2.5" style="stroke:#181818;stroke-width:0.5;" width="130" x="490.5" y="366.4999"/><ellipse cx="505.5" cy="382.4999" fill="#ADD1B2" rx="11" ry="11" style="stroke:#181818;stroke-width:1.0;"/><path d="M505.7031,389.1405 Q505.2344,389.1405 504.7813,389.0468 Q504.3281,388.953 503.9063,388.7187 Q503.5,388.4843 503.1875,388.1249 Q502.875,387.7655 502.6875,387.3437 Q502.5,386.9062 502.4219,386.4374 Q502.3594,385.9687 502.3594,385.5155 L502.3594,379.9843 Q502.3594,379.5312 502.4219,379.0624 Q502.5,378.5937 502.6875,378.1718 Q502.875,377.7499 503.1875,377.3905 Q503.5,377.0155 503.9063,376.7968 Q504.3281,376.5624 504.7813,376.4687 Q505.2344,376.3749 505.7031,376.3749 Q506.1406,376.3749 506.5781,376.453 Q507.0156,376.5155 507.4063,376.7187 Q507.7969,376.9062 508.1094,377.2343 Q508.4375,377.5468 508.625,377.9374 Q508.8281,378.328 508.9219,378.7655 Q509.0313,379.1874 509.0313,379.6405 L509.0313,379.6562 L507.1406,379.6562 L507.1406,379.6405 Q507.1406,379.328 507.0469,379.0312 Q506.9688,378.7343 506.7813,378.4843 Q506.5938,378.2343 506.2969,378.1249 Q506.0156,377.9999 505.7031,377.9999 Q505.4844,377.9999 505.25,378.078 Q505.0156,378.1405 504.8438,378.2968 Q504.6719,378.4374 504.5469,378.6405 Q504.4375,378.8437 504.375,379.078 Q504.3125,379.2968 504.2813,379.5312 Q504.25,379.7499 504.25,379.9843 L504.25,385.5155 Q504.25,385.7499 504.2813,385.9843 Q504.3125,386.2187 504.375,386.4374 Q504.4375,386.6562 504.5469,386.8593 Q504.6719,387.0624 504.8438,387.2187 Q505.0156,387.3749 505.25,387.4374 Q505.4844,387.4999 505.7031,387.4999 Q506.0156,387.4999 506.2969,387.3905 Q506.5938,387.2655 506.7813,387.0155 Q506.9688,386.7655 507.0469,386.4687 Q507.1406,386.1718 507.1406,385.8749 L507.1406,385.8593 L509.0313,385.8593 L509.0313,385.8749 Q509.0313,386.3124 508.9219,386.7499 Q508.8281,387.1874 508.625,387.578 Q508.4375,387.9687 508.1094,388.2812 Q507.7969,388.5937 507.4063,388.7968 Q507.0156,388.9843 506.5781,389.0624 Q506.1406,389.1405 505.7031,389.1405 Z " fill="#000000"/><text fill="#000000" font-family="sans-serif" font-size="14" lengthAdjust="spacing" textLength="98" x="519.5" y="387.2599">CommandEncoder</text><line style="stroke:#181818;stroke-width:0.5;" x1="491.5" x2="619.5" y1="398.4999" y2="398.4999"/><text fill="#000000" font-family="sans-serif" font-size="14" lengthAdjust="spacing" textLength="91" x="496.5" y="416.0099">CommandBuffer</text><text fill="#000000" font-family="sans-serif" font-size="14" lengthAdjust="spacing" textLength="77" x="496.5" y="433.5098">CommandPool</text><line style="stroke:#181818;stroke-width:0.5;" x1="491.5" x2="619.5" y1="441.4998" y2="441.4998"/></g><!--class gpu--><g id="elem_gpu"><rect codeLine="5" fill="#F1F1F1" height="48" id="gpu" rx="2.5" ry="2.5" style="stroke:#181818;stroke-width:0.5;" width="53" x="53" y="45.4999"/><ellipse cx="68" cy="61.4999" fill="#ADD1B2" rx="11" ry="11" style="stroke:#181818;stroke-width:1.0;"/><path d="M68.2031,68.1405 Q67.7344,68.1405 67.2813,68.0468 Q66.8281,67.953 66.4063,67.7187 Q66,67.4843 65.6875,67.1249 Q65.375,66.7655 65.1875,66.3437 Q65,65.9062 64.9219,65.4374 Q64.8594,64.9687 64.8594,64.5155 L64.8594,58.9843 Q64.8594,58.5312 64.9219,58.0624 Q65,57.5937 65.1875,57.1718 Q65.375,56.7499 65.6875,56.3905 Q66,56.0155 66.4063,55.7968 Q66.8281,55.5624 67.2813,55.4687 Q67.7344,55.3749 68.2031,55.3749 Q68.6406,55.3749 69.0781,55.453 Q69.5156,55.5155 69.9063,55.7187 Q70.2969,55.9062 70.6094,56.2343 Q70.9375,56.5468 71.125,56.9374 Q71.3281,57.328 71.4219,57.7655 Q71.5313,58.1874 71.5313,58.6405 L71.5313,58.6562 L69.6406,58.6562 L69.6406,58.6405 Q69.6406,58.328 69.5469,58.0312 Q69.4688,57.7343 69.2813,57.4843 Q69.0938,57.2343 68.7969,57.1249 Q68.5156,56.9999 68.2031,56.9999 Q67.9844,56.9999 67.75,57.078 Q67.5156,57.1405 67.3438,57.2968 Q67.1719,57.4374 67.0469,57.6405 Q66.9375,57.8437 66.875,58.078 Q66.8125,58.2968 66.7813,58.5312 Q66.75,58.7499 66.75,58.9843 L66.75,64.5155 Q66.75,64.7499 66.7813,64.9843 Q66.8125,65.2187 66.875,65.4374 Q66.9375,65.6562 67.0469,65.8593 Q67.1719,66.0624 67.3438,66.2187 Q67.5156,66.3749 67.75,66.4374 Q67.9844,66.4999 68.2031,66.4999 Q68.5156,66.4999 68.7969,66.3905 Q69.0938,66.2655 69.2813,66.0155 Q69.4688,65.7655 69.5469,65.4687 Q69.6406,65.1718 69.6406,64.8749 L69.6406,64.8593 L71.5313,64.8593 L71.5313,64.8749 Q71.5313,65.3124 71.4219,65.7499 Q71.3281,66.1874 71.125,66.578 Q70.9375,66.9687 70.6094,67.2812 Q70.2969,67.5937 69.9063,67.7968 Q69.5156,67.9843 69.0781,68.0624 Q68.6406,68.1405 68.2031,68.1405 Z " fill="#000000"/><text fill="#000000" font-family="sans-serif" font-size="14" lengthAdjust="spacing" textLength="21" x="82" y="66.2599">gpu</text><line style="stroke:#181818;stroke-width:0.5;" x1="54" x2="105" y1="77.4999" y2="77.4999"/><line style="stroke:#181818;stroke-width:0.5;" x1="54" x2="105" y1="85.4999" y2="85.4999"/></g><!--class device--><g id="elem_device"><rect codeLine="6" fill="#F1F1F1" height="48" id="device" rx="2.5" ry="2.5" style="stroke:#181818;stroke-width:0.5;" width="74" x="141.5" y="45.4999"/><ellipse cx="156.5" cy="61.4999" fill="#ADD1B2" rx="11" ry="11" style="stroke:#181818;stroke-width:1.0;"/><path d="M156.7031,68.1405 Q156.2344,68.1405 155.7813,68.0468 Q155.3281,67.953 154.9063,67.7187 Q154.5,67.4843 154.1875,67.1249 Q153.875,66.7655 153.6875,66.3437 Q153.5,65.9062 153.4219,65.4374 Q153.3594,64.9687 153.3594,64.5155 L153.3594,58.9843 Q153.3594,58.5312 153.4219,58.0624 Q153.5,57.5937 153.6875,57.1718 Q153.875,56.7499 154.1875,56.3905 Q154.5,56.0155 154.9063,55.7968 Q155.3281,55.5624 155.7813,55.4687 Q156.2344,55.3749 156.7031,55.3749 Q157.1406,55.3749 157.5781,55.453 Q158.0156,55.5155 158.4063,55.7187 Q158.7969,55.9062 159.1094,56.2343 Q159.4375,56.5468 159.625,56.9374 Q159.8281,57.328 159.9219,57.7655 Q160.0313,58.1874 160.0313,58.6405 L160.0313,58.6562 L158.1406,58.6562 L158.1406,58.6405 Q158.1406,58.328 158.0469,58.0312 Q157.9688,57.7343 157.7813,57.4843 Q157.5938,57.2343 157.2969,57.1249 Q157.0156,56.9999 156.7031,56.9999 Q156.4844,56.9999 156.25,57.078 Q156.0156,57.1405 155.8438,57.2968 Q155.6719,57.4374 155.5469,57.6405 Q155.4375,57.8437 155.375,58.078 Q155.3125,58.2968 155.2813,58.5312 Q155.25,58.7499 155.25,58.9843 L155.25,64.5155 Q155.25,64.7499 155.2813,64.9843 Q155.3125,65.2187 155.375,65.4374 Q155.4375,65.6562 155.5469,65.8593 Q155.6719,66.0624 155.8438,66.2187 Q156.0156,66.3749 156.25,66.4374 Q156.4844,66.4999 156.7031,66.4999 Q157.0156,66.4999 157.2969,66.3905 Q157.5938,66.2655 157.7813,66.0155 Q157.9688,65.7655 158.0469,65.4687 Q158.1406,65.1718 158.1406,64.8749 L158.1406,64.8593 L160.0313,64.8593 L160.0313,64.8749 Q160.0313,65.3124 159.9219,65.7499 Q159.8281,66.1874 159.625,66.578 Q159.4375,66.9687 159.1094,67.2812 Q158.7969,67.5937 158.4063,67.7968 Q158.0156,67.9843 157.5781,68.0624 Q157.1406,68.1405 156.7031,68.1405 Z " fill="#000000"/><text fill="#000000" font-family="sans-serif" font-size="14" lengthAdjust="spacing" textLength="42" x="170.5" y="66.2599">device</text><line style="stroke:#181818;stroke-width:0.5;" x1="142.5" x2="214.5" y1="77.4999" y2="77.4999"/><line style="stroke:#181818;stroke-width:0.5;" x1="142.5" x2="214.5" y1="85.4999" y2="85.4999"/></g><!--class surface--><g id="elem_surface"><rect codeLine="8" fill="#F1F1F1" height="48" id="surface" rx="2.5" ry="2.5" style="stroke:#181818;stroke-width:0.5;" width="81" x="251" y="45.4999"/><ellipse cx="266" cy="61.4999" fill="#ADD1B2" rx="11" ry="11" style="stroke:#181818;stroke-width:1.0;"/><path d="M266.2031,68.1405 Q265.7344,68.1405 265.2813,68.0468 Q264.8281,67.953 264.4063,67.7187 Q264,67.4843 263.6875,67.1249 Q263.375,66.7655 263.1875,66.3437 Q263,65.9062 262.9219,65.4374 Q262.8594,64.9687 262.8594,64.5155 L262.8594,58.9843 Q262.8594,58.5312 262.9219,58.0624 Q263,57.5937 263.1875,57.1718 Q263.375,56.7499 263.6875,56.3905 Q264,56.0155 264.4063,55.7968 Q264.8281,55.5624 265.2813,55.4687 Q265.7344,55.3749 266.2031,55.3749 Q266.6406,55.3749 267.0781,55.453 Q267.5156,55.5155 267.9063,55.7187 Q268.2969,55.9062 268.6094,56.2343 Q268.9375,56.5468 269.125,56.9374 Q269.3281,57.328 269.4219,57.7655 Q269.5313,58.1874 269.5313,58.6405 L269.5313,58.6562 L267.6406,58.6562 L267.6406,58.6405 Q267.6406,58.328 267.5469,58.0312 Q267.4688,57.7343 267.2813,57.4843 Q267.0938,57.2343 266.7969,57.1249 Q266.5156,56.9999 266.2031,56.9999 Q265.9844,56.9999 265.75,57.078 Q265.5156,57.1405 265.3438,57.2968 Q265.1719,57.4374 265.0469,57.6405 Q264.9375,57.8437 264.875,58.078 Q264.8125,58.2968 264.7813,58.5312 Q264.75,58.7499 264.75,58.9843 L264.75,64.5155 Q264.75,64.7499 264.7813,64.9843 Q264.8125,65.2187 264.875,65.4374 Q264.9375,65.6562 265.0469,65.8593 Q265.1719,66.0624 265.3438,66.2187 Q265.5156,66.3749 265.75,66.4374 Q265.9844,66.4999 266.2031,66.4999 Q266.5156,66.4999 266.7969,66.3905 Q267.0938,66.2655 267.2813,66.0155 Q267.4688,65.7655 267.5469,65.4687 Q267.6406,65.1718 267.6406,64.8749 L267.6406,64.8593 L269.5313,64.8593 L269.5313,64.8749 Q269.5313,65.3124 269.4219,65.7499 Q269.3281,66.1874 269.125,66.578 Q268.9375,66.9687 268.6094,67.2812 Q268.2969,67.5937 267.9063,67.7968 Q267.5156,67.9843 267.0781,68.0624 Q266.6406,68.1405 266.2031,68.1405 Z " fill="#000000"/><text fill="#000000" font-family="sans-serif" font-size="14" lengthAdjust="spacing" textLength="49" x="280" y="66.2599">surface</text><line style="stroke:#181818;stroke-width:0.5;" x1="252" x2="331" y1="77.4999" y2="77.4999"/><line style="stroke:#181818;stroke-width:0.5;" x1="252" x2="331" y1="85.4999" y2="85.4999"/></g><!--class Swapchain--><g id="elem_Swapchain"><rect codeLine="10" fill="#F1F1F1" height="48" id="Swapchain" rx="2.5" ry="2.5" style="stroke:#181818;stroke-width:0.5;" width="95" x="367" y="45.4999"/><ellipse cx="382" cy="61.4999" fill="#ADD1B2" rx="11" ry="11" style="stroke:#181818;stroke-width:1.0;"/><path d="M382.2031,68.1405 Q381.7344,68.1405 381.2813,68.0468 Q380.8281,67.953 380.4063,67.7187 Q380,67.4843 379.6875,67.1249 Q379.375,66.7655 379.1875,66.3437 Q379,65.9062 378.9219,65.4374 Q378.8594,64.9687 378.8594,64.5155 L378.8594,58.9843 Q378.8594,58.5312 378.9219,58.0624 Q379,57.5937 379.1875,57.1718 Q379.375,56.7499 379.6875,56.3905 Q380,56.0155 380.4063,55.7968 Q380.8281,55.5624 381.2813,55.4687 Q381.7344,55.3749 382.2031,55.3749 Q382.6406,55.3749 383.0781,55.453 Q383.5156,55.5155 383.9063,55.7187 Q384.2969,55.9062 384.6094,56.2343 Q384.9375,56.5468 385.125,56.9374 Q385.3281,57.328 385.4219,57.7655 Q385.5313,58.1874 385.5313,58.6405 L385.5313,58.6562 L383.6406,58.6562 L383.6406,58.6405 Q383.6406,58.328 383.5469,58.0312 Q383.4688,57.7343 383.2813,57.4843 Q383.0938,57.2343 382.7969,57.1249 Q382.5156,56.9999 382.2031,56.9999 Q381.9844,56.9999 381.75,57.078 Q381.5156,57.1405 381.3438,57.2968 Q381.1719,57.4374 381.0469,57.6405 Q380.9375,57.8437 380.875,58.078 Q380.8125,58.2968 380.7813,58.5312 Q380.75,58.7499 380.75,58.9843 L380.75,64.5155 Q380.75,64.7499 380.7813,64.9843 Q380.8125,65.2187 380.875,65.4374 Q380.9375,65.6562 381.0469,65.8593 Q381.1719,66.0624 381.3438,66.2187 Q381.5156,66.3749 381.75,66.4374 Q381.9844,66.4999 382.2031,66.4999 Q382.5156,66.4999 382.7969,66.3905 Q383.0938,66.2655 383.2813,66.0155 Q383.4688,65.7655 383.5469,65.4687 Q383.6406,65.1718 383.6406,64.8749 L383.6406,64.8593 L385.5313,64.8593 L385.5313,64.8749 Q385.5313,65.3124 385.4219,65.7499 Q385.3281,66.1874 385.125,66.578 Q384.9375,66.9687 384.6094,67.2812 Q384.2969,67.5937 383.9063,67.7968 Q383.5156,67.9843 383.0781,68.0624 Q382.6406,68.1405 382.2031,68.1405 Z " fill="#000000"/><text fill="#000000" font-family="sans-serif" font-size="14" lengthAdjust="spacing" textLength="63" x="396" y="66.2599">Swapchain</text><line style="stroke:#181818;stroke-width:0.5;" x1="368" x2="461" y1="77.4999" y2="77.4999"/><line style="stroke:#181818;stroke-width:0.5;" x1="368" x2="461" y1="85.4999" y2="85.4999"/></g><!--class RenderPass--><g id="elem_RenderPass"><rect codeLine="17" fill="#F1F1F1" height="117.9997" id="RenderPass" rx="2.5" ry="2.5" style="stroke:#181818;stroke-width:0.5;" width="145" x="7" y="153.4999"/><ellipse cx="41.35" cy="169.4999" fill="#ADD1B2" rx="11" ry="11" style="stroke:#181818;stroke-width:1.0;"/><path d="M41.5531,176.1405 Q41.0844,176.1405 40.6313,176.0468 Q40.1781,175.953 39.7563,175.7187 Q39.35,175.4843 39.0375,175.1249 Q38.725,174.7655 38.5375,174.3437 Q38.35,173.9062 38.2719,173.4374 Q38.2094,172.9687 38.2094,172.5155 L38.2094,166.9843 Q38.2094,166.5312 38.2719,166.0624 Q38.35,165.5937 38.5375,165.1718 Q38.725,164.7499 39.0375,164.3905 Q39.35,164.0155 39.7563,163.7968 Q40.1781,163.5624 40.6313,163.4687 Q41.0844,163.3749 41.5531,163.3749 Q41.9906,163.3749 42.4281,163.453 Q42.8656,163.5155 43.2563,163.7187 Q43.6469,163.9062 43.9594,164.2343 Q44.2875,164.5468 44.475,164.9374 Q44.6781,165.328 44.7719,165.7655 Q44.8813,166.1874 44.8813,166.6405 L44.8813,166.6562 L42.9906,166.6562 L42.9906,166.6405 Q42.9906,166.328 42.8969,166.0312 Q42.8188,165.7343 42.6313,165.4843 Q42.4438,165.2343 42.1469,165.1249 Q41.8656,164.9999 41.5531,164.9999 Q41.3344,164.9999 41.1,165.078 Q40.8656,165.1405 40.6938,165.2968 Q40.5219,165.4374 40.3969,165.6405 Q40.2875,165.8437 40.225,166.078 Q40.1625,166.2968 40.1313,166.5312 Q40.1,166.7499 40.1,166.9843 L40.1,172.5155 Q40.1,172.7499 40.1313,172.9843 Q40.1625,173.2187 40.225,173.4374 Q40.2875,173.6562 40.3969,173.8593 Q40.5219,174.0624 40.6938,174.2187 Q40.8656,174.3749 41.1,174.4374 Q41.3344,174.4999 41.5531,174.4999 Q41.8656,174.4999 42.1469,174.3905 Q42.4438,174.2655 42.6313,174.0155 Q42.8188,173.7655 42.8969,173.4687 Q42.9906,173.1718 42.9906,172.8749 L42.9906,172.8593 L44.8813,172.8593 L44.8813,172.8749 Q44.8813,173.3124 44.7719,173.7499 Q44.6781,174.1874 44.475,174.578 Q44.2875,174.9687 43.9594,175.2812 Q43.6469,175.5937 43.2563,175.7968 Q42.8656,175.9843 42.4281,176.0624 Q41.9906,176.1405 41.5531,176.1405 Z " fill="#000000"/><text fill="#000000" font-family="sans-serif" font-size="14" lengthAdjust="spacing" textLength="70" x="59.65" y="174.2599">RenderPass</text><line style="stroke:#181818;stroke-width:0.5;" x1="8" x2="151" y1="185.4999" y2="185.4999"/><line style="stroke:#181818;stroke-width:0.5;" x1="8" x2="151" y1="193.4999" y2="193.4999"/><ellipse cx="18" cy="207.7499" fill="#84BE84" rx="3" ry="3" style="stroke:#038048;stroke-width:1.0;"/><text fill="#000000" font-family="sans-serif" font-size="14" lengthAdjust="spacing" textLength="91" x="27" y="211.0099">SetPipeline()</text><ellipse cx="18" cy="225.2498" fill="#84BE84" rx="3" ry="3" style="stroke:#038048;stroke-width:1.0;"/><text fill="#000000" font-family="sans-serif" font-size="14" lengthAdjust="spacing" textLength="119" x="27" y="228.5098">SetVertexBuffer()</text><ellipse cx="18" cy="242.7497" fill="#84BE84" rx="3" ry="3" style="stroke:#038048;stroke-width:1.0;"/><text fill="#000000" font-family="sans-serif" font-size="14" lengthAdjust="spacing" textLength="98" x="27" y="246.0097">SetBindGroup()</text><ellipse cx="18" cy="260.2497" fill="#84BE84" rx="3" ry="3" style="stroke:#038048;stroke-width:1.0;"/><text fill="#000000" font-family="sans-serif" font-size="14" lengthAdjust="spacing" textLength="77" x="27" y="263.5096">DrawIndex()</text></g><!--class Memory--><g id="elem_Memory"><rect codeLine="24" fill="#F1F1F1" height="117.9997" id="Memory" rx="2.5" ry="2.5" style="stroke:#181818;stroke-width:0.5;" width="75" x="187" y="153.4999"/><ellipse cx="202.45" cy="169.4999" fill="#EB937F" rx="11" ry="11" style="stroke:#181818;stroke-width:1.0;"/><path d="M199.0906,175.9999 L199.0906,163.4999 L205.45,163.4999 L205.45,165.1405 L200.9813,165.1405 L200.9813,168.6874 L204.4813,168.6874 L204.4813,170.328 L200.9813,170.328 L200.9813,174.3749 L205.45,174.3749 L205.45,175.9999 L199.0906,175.9999 Z " fill="#000000"/><text fill="#000000" font-family="sans-serif" font-size="14" lengthAdjust="spacing" textLength="42" x="216.55" y="174.2599">Memory</text><line style="stroke:#181818;stroke-width:0.5;" x1="188" x2="261" y1="185.4999" y2="185.4999"/><text fill="#000000" font-family="sans-serif" font-size="14" lengthAdjust="spacing" textLength="35" x="193" y="203.0099">image</text><text fill="#000000" font-family="sans-serif" font-size="14" lengthAdjust="spacing" textLength="63" x="193" y="220.5098">imageView</text><text fill="#000000" font-family="sans-serif" font-size="14" lengthAdjust="spacing" textLength="42" x="193" y="238.0097">memory</text><text fill="#000000" font-family="sans-serif" font-size="14" lengthAdjust="spacing" textLength="49" x="193" y="255.5096">sampler</text><line style="stroke:#181818;stroke-width:0.5;" x1="188" x2="261" y1="263.4996" y2="263.4996"/></g><!--class Shader--><g id="elem_Shader"><rect codeLine="31" fill="#F1F1F1" height="82.9998" id="Shader" rx="2.5" ry="2.5" style="stroke:#181818;stroke-width:0.5;" width="74" x="297.5" y="170.9999"/><ellipse cx="312.5" cy="186.9999" fill="#ADD1B2" rx="11" ry="11" style="stroke:#181818;stroke-width:1.0;"/><path d="M312.7031,193.6405 Q312.2344,193.6405 311.7813,193.5468 Q311.3281,193.453 310.9063,193.2187 Q310.5,192.9843 310.1875,192.6249 Q309.875,192.2655 309.6875,191.8437 Q309.5,191.4062 309.4219,190.9374 Q309.3594,190.4687 309.3594,190.0155 L309.3594,184.4843 Q309.3594,184.0312 309.4219,183.5624 Q309.5,183.0937 309.6875,182.6718 Q309.875,182.2499 310.1875,181.8905 Q310.5,181.5155 310.9063,181.2968 Q311.3281,181.0624 311.7813,180.9687 Q312.2344,180.8749 312.7031,180.8749 Q313.1406,180.8749 313.5781,180.953 Q314.0156,181.0155 314.4063,181.2187 Q314.7969,181.4062 315.1094,181.7343 Q315.4375,182.0468 315.625,182.4374 Q315.8281,182.828 315.9219,183.2655 Q316.0313,183.6874 316.0313,184.1405 L316.0313,184.1562 L314.1406,184.1562 L314.1406,184.1405 Q314.1406,183.828 314.0469,183.5312 Q313.9688,183.2343 313.7813,182.9843 Q313.5938,182.7343 313.2969,182.6249 Q313.0156,182.4999 312.7031,182.4999 Q312.4844,182.4999 312.25,182.578 Q312.0156,182.6405 311.8438,182.7968 Q311.6719,182.9374 311.5469,183.1405 Q311.4375,183.3437 311.375,183.578 Q311.3125,183.7968 311.2813,184.0312 Q311.25,184.2499 311.25,184.4843 L311.25,190.0155 Q311.25,190.2499 311.2813,190.4843 Q311.3125,190.7187 311.375,190.9374 Q311.4375,191.1562 311.5469,191.3593 Q311.6719,191.5624 311.8438,191.7187 Q312.0156,191.8749 312.25,191.9374 Q312.4844,191.9999 312.7031,191.9999 Q313.0156,191.9999 313.2969,191.8905 Q313.5938,191.7655 313.7813,191.5155 Q313.9688,191.2655 314.0469,190.9687 Q314.1406,190.6718 314.1406,190.3749 L314.1406,190.3593 L316.0313,190.3593 L316.0313,190.3749 Q316.0313,190.8124 315.9219,191.2499 Q315.8281,191.6874 315.625,192.078 Q315.4375,192.4687 315.1094,192.7812 Q314.7969,193.0937 314.4063,193.2968 Q314.0156,193.4843 313.5781,193.5624 Q313.1406,193.6405 312.7031,193.6405 Z " fill="#000000"/><text fill="#000000" font-family="sans-serif" font-size="14" lengthAdjust="spacing" textLength="42" x="326.5" y="191.7599">Shader</text><line style="stroke:#181818;stroke-width:0.5;" x1="298.5" x2="370.5" y1="202.9999" y2="202.9999"/><text fill="#000000" font-family="sans-serif" font-size="14" lengthAdjust="spacing" textLength="42" x="303.5" y="220.5099">vertex</text><text fill="#000000" font-family="sans-serif" font-size="14" lengthAdjust="spacing" textLength="56" x="303.5" y="238.0098">fragment</text><line style="stroke:#181818;stroke-width:0.5;" x1="298.5" x2="370.5" y1="245.9998" y2="245.9998"/></g><!--class BindGroup--><g id="elem_BindGroup"><rect codeLine="36" fill="#F1F1F1" height="82.9998" id="BindGroup" rx="2.5" ry="2.5" style="stroke:#181818;stroke-width:0.5;" width="96" x="406.5" y="170.9999"/><ellipse cx="421.95" cy="186.9999" fill="#ADD1B2" rx="11" ry="11" style="stroke:#181818;stroke-width:1.0;"/><path d="M422.1531,193.6405 Q421.6844,193.6405 421.2313,193.5468 Q420.7781,193.453 420.3563,193.2187 Q419.95,192.9843 419.6375,192.6249 Q419.325,192.2655 419.1375,191.8437 Q418.95,191.4062 418.8719,190.9374 Q418.8094,190.4687 418.8094,190.0155 L418.8094,184.4843 Q418.8094,184.0312 418.8719,183.5624 Q418.95,183.0937 419.1375,182.6718 Q419.325,182.2499 419.6375,181.8905 Q419.95,181.5155 420.3563,181.2968 Q420.7781,181.0624 421.2313,180.9687 Q421.6844,180.8749 422.1531,180.8749 Q422.5906,180.8749 423.0281,180.953 Q423.4656,181.0155 423.8563,181.2187 Q424.2469,181.4062 424.5594,181.7343 Q424.8875,182.0468 425.075,182.4374 Q425.2781,182.828 425.3719,183.2655 Q425.4813,183.6874 425.4813,184.1405 L425.4813,184.1562 L423.5906,184.1562 L423.5906,184.1405 Q423.5906,183.828 423.4969,183.5312 Q423.4188,183.2343 423.2313,182.9843 Q423.0438,182.7343 422.7469,182.6249 Q422.4656,182.4999 422.1531,182.4999 Q421.9344,182.4999 421.7,182.578 Q421.4656,182.6405 421.2938,182.7968 Q421.1219,182.9374 420.9969,183.1405 Q420.8875,183.3437 420.825,183.578 Q420.7625,183.7968 420.7313,184.0312 Q420.7,184.2499 420.7,184.4843 L420.7,190.0155 Q420.7,190.2499 420.7313,190.4843 Q420.7625,190.7187 420.825,190.9374 Q420.8875,191.1562 420.9969,191.3593 Q421.1219,191.5624 421.2938,191.7187 Q421.4656,191.8749 421.7,191.9374 Q421.9344,191.9999 422.1531,191.9999 Q422.4656,191.9999 422.7469,191.8905 Q423.0438,191.7655 423.2313,191.5155 Q423.4188,191.2655 423.4969,190.9687 Q423.5906,190.6718 423.5906,190.3749 L423.5906,190.3593 L425.4813,190.3593 L425.4813,190.3749 Q425.4813,190.8124 425.3719,191.2499 Q425.2781,191.6874 425.075,192.078 Q424.8875,192.4687 424.5594,192.7812 Q424.2469,193.0937 423.8563,193.2968 Q423.4656,193.4843 423.0281,193.5624 Q422.5906,193.6405 422.1531,193.6405 Z " fill="#000000"/><text fill="#000000" font-family="sans-serif" font-size="14" lengthAdjust="spacing" textLength="63" x="436.05" y="191.7599">BindGroup</text><line style="stroke:#181818;stroke-width:0.5;" x1="407.5" x2="501.5" y1="202.9999" y2="202.9999"/><text fill="#000000" font-family="sans-serif" font-size="14" lengthAdjust="spacing" textLength="49" x="412.5" y="220.5099">Entries</text><text fill="#000000" font-family="sans-serif" font-size="14" lengthAdjust="spacing" textLength="84" x="412.5" y="238.0098">EntryLayouts</text><line style="stroke:#181818;stroke-width:0.5;" x1="407.5" x2="501.5" y1="245.9998" y2="245.9998"/></g><!--class Pipeline--><g id="elem_Pipeline"><rect codeLine="41" fill="#F1F1F1" height="152.9995" id="Pipeline" rx="2.5" ry="2.5" style="stroke:#181818;stroke-width:0.5;" width="117" x="21" y="331.4999"/><ellipse cx="49.05" cy="347.4999" fill="#ADD1B2" rx="11" ry="11" style="stroke:#181818;stroke-width:1.0;"/><path d="M49.2531,354.1405 Q48.7844,354.1405 48.3313,354.0468 Q47.8781,353.953 47.4563,353.7187 Q47.05,353.4843 46.7375,353.1249 Q46.425,352.7655 46.2375,352.3437 Q46.05,351.9062 45.9719,351.4374 Q45.9094,350.9687 45.9094,350.5155 L45.9094,344.9843 Q45.9094,344.5312 45.9719,344.0624 Q46.05,343.5937 46.2375,343.1718 Q46.425,342.7499 46.7375,342.3905 Q47.05,342.0155 47.4563,341.7968 Q47.8781,341.5624 48.3313,341.4687 Q48.7844,341.3749 49.2531,341.3749 Q49.6906,341.3749 50.1281,341.453 Q50.5656,341.5155 50.9563,341.7187 Q51.3469,341.9062 51.6594,342.2343 Q51.9875,342.5468 52.175,342.9374 Q52.3781,343.328 52.4719,343.7655 Q52.5813,344.1874 52.5813,344.6405 L52.5813,344.6562 L50.6906,344.6562 L50.6906,344.6405 Q50.6906,344.328 50.5969,344.0312 Q50.5188,343.7343 50.3313,343.4843 Q50.1438,343.2343 49.8469,343.1249 Q49.5656,342.9999 49.2531,342.9999 Q49.0344,342.9999 48.8,343.078 Q48.5656,343.1405 48.3938,343.2968 Q48.2219,343.4374 48.0969,343.6405 Q47.9875,343.8437 47.925,344.078 Q47.8625,344.2968 47.8313,344.5312 Q47.8,344.7499 47.8,344.9843 L47.8,350.5155 Q47.8,350.7499 47.8313,350.9843 Q47.8625,351.2187 47.925,351.4374 Q47.9875,351.6562 48.0969,351.8593 Q48.2219,352.0624 48.3938,352.2187 Q48.5656,352.3749 48.8,352.4374 Q49.0344,352.4999 49.2531,352.4999 Q49.5656,352.4999 49.8469,352.3905 Q50.1438,352.2655 50.3313,352.0155 Q50.5188,351.7655 50.5969,351.4687 Q50.6906,351.1718 50.6906,350.8749 L50.6906,350.8593 L52.5813,350.8593 L52.5813,350.8749 Q52.5813,351.3124 52.4719,351.7499 Q52.3781,352.1874 52.175,352.578 Q51.9875,352.9687 51.6594,353.2812 Q51.3469,353.5937 50.9563,353.7968 Q50.5656,353.9843 50.1281,354.0624 Q49.6906,354.1405 49.2531,354.1405 Z " fill="#000000"/><text fill="#000000" font-family="sans-serif" font-size="14" lengthAdjust="spacing" textLength="56" x="65.95" y="352.2599">Pipeline</text><line style="stroke:#181818;stroke-width:0.5;" x1="22" x2="137" y1="363.4999" y2="363.4999"/><text fill="#000000" font-family="sans-serif" font-size="14" lengthAdjust="spacing" textLength="84" x="27" y="381.0099">ShaderModule</text><text fill="#000000" font-family="sans-serif" font-size="14" lengthAdjust="spacing" textLength="63" x="27" y="398.5098">Primitive</text><text fill="#000000" font-family="sans-serif" font-size="14" lengthAdjust="spacing" textLength="49" x="27" y="416.0097">Scissor</text><text fill="#000000" font-family="sans-serif" font-size="14" lengthAdjust="spacing" textLength="91" x="27" y="433.5096">Rasterization</text><text fill="#000000" font-family="sans-serif" font-size="14" lengthAdjust="spacing" textLength="49" x="27" y="451.0096">Stencil</text><text fill="#000000" font-family="sans-serif" font-size="14" lengthAdjust="spacing" textLength="105" x="27" y="468.5095">BindGroupLayout</text><line style="stroke:#181818;stroke-width:0.5;" x1="22" x2="137" y1="476.4995" y2="476.4995"/></g><!--class Buffer--><g id="elem_Buffer"><rect codeLine="51" fill="#F1F1F1" height="152.9995" id="Buffer" rx="2.5" ry="2.5" style="stroke:#181818;stroke-width:0.5;" width="103" x="173" y="331.4999"/><ellipse cx="201.05" cy="347.4999" fill="#ADD1B2" rx="11" ry="11" style="stroke:#181818;stroke-width:1.0;"/><path d="M201.2531,354.1405 Q200.7844,354.1405 200.3313,354.0468 Q199.8781,353.953 199.4563,353.7187 Q199.05,353.4843 198.7375,353.1249 Q198.425,352.7655 198.2375,352.3437 Q198.05,351.9062 197.9719,351.4374 Q197.9094,350.9687 197.9094,350.5155 L197.9094,344.9843 Q197.9094,344.5312 197.9719,344.0624 Q198.05,343.5937 198.2375,343.1718 Q198.425,342.7499 198.7375,342.3905 Q199.05,342.0155 199.4563,341.7968 Q199.8781,341.5624 200.3313,341.4687 Q200.7844,341.3749 201.2531,341.3749 Q201.6906,341.3749 202.1281,341.453 Q202.5656,341.5155 202.9563,341.7187 Q203.3469,341.9062 203.6594,342.2343 Q203.9875,342.5468 204.175,342.9374 Q204.3781,343.328 204.4719,343.7655 Q204.5813,344.1874 204.5813,344.6405 L204.5813,344.6562 L202.6906,344.6562 L202.6906,344.6405 Q202.6906,344.328 202.5969,344.0312 Q202.5188,343.7343 202.3313,343.4843 Q202.1438,343.2343 201.8469,343.1249 Q201.5656,342.9999 201.2531,342.9999 Q201.0344,342.9999 200.8,343.078 Q200.5656,343.1405 200.3938,343.2968 Q200.2219,343.4374 200.0969,343.6405 Q199.9875,343.8437 199.925,344.078 Q199.8625,344.2968 199.8313,344.5312 Q199.8,344.7499 199.8,344.9843 L199.8,350.5155 Q199.8,350.7499 199.8313,350.9843 Q199.8625,351.2187 199.925,351.4374 Q199.9875,351.6562 200.0969,351.8593 Q200.2219,352.0624 200.3938,352.2187 Q200.5656,352.3749 200.8,352.4374 Q201.0344,352.4999 201.2531,352.4999 Q201.5656,352.4999 201.8469,352.3905 Q202.1438,352.2655 202.3313,352.0155 Q202.5188,351.7655 202.5969,351.4687 Q202.6906,351.1718 202.6906,350.8749 L202.6906,350.8593 L204.5813,350.8593 L204.5813,350.8749 Q204.5813,351.3124 204.4719,351.7499 Q204.3781,352.1874 204.175,352.578 Q203.9875,352.9687 203.6594,353.2812 Q203.3469,353.5937 202.9563,353.7968 Q202.5656,353.9843 202.1281,354.0624 Q201.6906,354.1405 201.2531,354.1405 Z " fill="#000000"/><text fill="#000000" font-family="sans-serif" font-size="14" lengthAdjust="spacing" textLength="42" x="217.95" y="352.2599">Buffer</text><line style="stroke:#181818;stroke-width:0.5;" x1="174" x2="275" y1="363.4999" y2="363.4999"/><text fill="#000000" font-family="sans-serif" font-size="14" lengthAdjust="spacing" textLength="91" x="179" y="381.0099">VertextBuffer</text><text fill="#000000" font-family="sans-serif" font-size="14" lengthAdjust="spacing" textLength="77" x="179" y="398.5098">IndexBuffer</text><text fill="#000000" font-family="sans-serif" font-size="14" lengthAdjust="spacing" textLength="91" x="179" y="416.0097">UniformBuffer</text><text fill="#000000" font-family="sans-serif" font-size="14" lengthAdjust="spacing" textLength="77" x="179" y="433.5096">FrameBuffer</text><text fill="#000000" font-family="sans-serif" font-size="14" lengthAdjust="spacing" textLength="77" x="179" y="451.0096">StageBuffer</text><text fill="#000000" font-family="sans-serif" font-size="14" lengthAdjust="spacing" textLength="91" x="179" y="468.5095">StorageBuffer</text><line style="stroke:#181818;stroke-width:0.5;" x1="174" x2="275" y1="476.4995" y2="476.4995"/></g><!--reverse link queue to CommandEncoder--><g id="link_queue_CommandEncoder"><path codeLine="3" d="M555.5,99.8999 C555.5,156.3799 555.5,294.8099 555.5,366.0299 " fill="none" id="queue-backto-CommandEncoder" style="stroke:#181818;stroke-width:1.0;"/><polygon fill="#181818" points="555.5,93.8999,551.5,102.8999,555.5,98.8999,559.5,102.8999,555.5,93.8999" style="stroke:#181818;stroke-width:1.0;"/></g><!--SRC=[LLBBRi8m4BpdAtniLV47FT5ILAb84H7ql4esiAeVOMqJQCM_rzZEWvncnhixutKSEOdYUrtkn0U3mjxmJr6SF7eKhul5GhmPfK0tArsR1haeQWdMYaFdCshmJ3Lc4liojfvR22UPLZrqzH583yBZOF5NYF1bSUdRDfZDbD8OMTo6tYtgq5FUOUfxgT2LrA4aZK_FexH7TdX9qsRoadIpPkExGNjdw3_3o4iGWWbghyG6bU5hdayA3ZYXFM4VcOf54LfGdGoXnv3L4QQBdMEI25k6WqBjfienJovUQSU4TiJNBxWQx-pKCTmrDoIhZMcyJ2bB9aMEpebLDLbhqZwtO1qo_O8ZezEfGrsJZ7XCaXplXaF6kCJib_RgPiyKjpVZEqsjOJLJukyruvKBYtpWXYVbzWy0]--></g></svg>